<svg width="1001" height="1001" viewBox="0 0 1001 1001" fill="none" xmlns="http://www.w3.org/2000/svg">
<g clip-path="url(#clip0_483_114)">
<path d="M467.659 1.12604C465.509 1.32151 458.666 2.00568 452.508 2.49437C310.474 15.298 177.434 91.924 93.1727 209.698C46.2519 275.182 16.2421 349.462 4.90283 428.141C0.895009 455.605 0.40625 463.717 0.40625 500.955C0.40625 538.193 0.895009 546.305 4.90283 573.769C32.0779 761.523 165.704 919.271 346.936 977.718C379.389 988.176 413.602 995.31 452.508 999.611C467.659 1001.28 533.153 1001.28 548.304 999.611C615.46 992.183 672.351 975.567 728.461 946.93C737.063 942.532 738.725 941.359 737.552 940.382C736.77 939.796 700.113 890.634 656.124 831.209L576.164 723.21L475.968 574.942C420.836 493.429 375.479 426.772 375.088 426.772C374.697 426.675 374.306 492.55 374.111 572.987C373.818 713.827 373.72 719.496 371.96 722.819C369.419 727.608 367.464 729.563 363.358 731.713C360.23 733.277 357.493 733.57 342.733 733.57H325.821L321.325 730.735C318.392 728.878 316.242 726.435 314.776 723.601L312.723 719.202L312.918 523.239L313.211 327.178L316.242 323.366C317.806 321.314 321.129 318.675 323.475 317.404C327.483 315.449 329.047 315.254 345.958 315.254C365.9 315.254 369.223 316.036 374.404 321.705C375.87 323.268 430.123 404.977 495.03 503.398C559.937 601.82 648.695 736.209 692.293 802.181L771.471 922.105L775.479 919.466C810.963 896.4 848.5 863.56 878.216 829.352C941.462 756.734 982.224 668.183 995.909 573.769C999.917 546.305 1000.41 538.193 1000.41 500.955C1000.41 463.717 999.917 455.605 995.909 428.141C968.734 240.387 835.108 82.639 653.876 24.1921C621.911 13.8319 587.894 6.69706 549.771 2.39662C540.386 1.41924 475.773 0.344139 467.659 1.12604ZM672.351 303.525C677.043 305.871 680.856 310.367 682.224 315.058C683.006 317.6 683.202 371.942 683.006 494.406L682.713 670.138L651.726 622.638L620.641 575.138V447.395C620.641 364.807 621.032 318.382 621.618 316.134C623.182 310.66 626.603 306.36 631.296 303.819C635.303 301.766 636.77 301.571 652.117 301.571C666.584 301.571 669.125 301.766 672.351 303.525Z" fill="black"/>
</g>
<defs>
<clipPath id="clip0_483_114">
<rect width="1000" height="1000" fill="white" transform="translate(0.40625 0.856934)"/>
</clipPath>
</defs>
</svg>
