<svg width="194" height="30" viewBox="0 0 194 30" fill="none" xmlns="http://www.w3.org/2000/svg">
<g clip-path="url(#clip0_511_155)">
<path d="M23.4452 19.2358L18.6699 19.2456C17.9561 19.247 17.3409 19.7494 17.1954 20.4493L16.6249 23.2348C16.5225 23.7279 16.0879 24.0803 15.5852 24.0773C14.3766 24.0709 13.7094 24.0379 12.1123 24.0379C8.4915 24.0379 4.66487 21.6265 4.66487 17.4641C4.66487 13.6047 8.07246 10.7827 12.0997 10.7827L17.5496 10.7724C18.2634 10.771 18.8787 10.2692 19.0243 9.56929L19.6047 6.79458C19.707 6.303 20.1399 5.95107 20.6415 5.95226C21.6551 5.95492 23.2287 5.96189 23.4435 5.97968C27.2492 5.97968 30.8801 8.57975 30.8801 12.6463C30.8801 16.372 27.6289 19.2358 23.4452 19.2358ZM23.483 1.85031C23.1451 1.83355 21.6331 1.8251 20.552 1.8211C19.8288 1.81828 19.2044 2.32632 19.0587 3.03597L18.4833 5.78074C18.3818 6.27395 17.9491 6.62885 17.4459 6.63107L12.0602 6.65434C6.06678 6.65434 0.566406 11.1442 0.566406 17.4303C0.566406 23.0798 5.28362 28.1622 12.062 28.1622C12.4123 28.1799 14.3793 28.1756 15.6914 28.1796C16.4154 28.1818 17.0399 27.6721 17.1846 26.9619L17.7571 24.2054C17.8581 23.7095 18.2936 23.353 18.7993 23.353L23.4848 23.366C30.1037 23.366 34.9788 18.2839 34.9788 12.5804C34.9788 6.35874 29.5946 1.85031 23.483 1.85031Z" fill="#9C9C9B"/>
<path d="M132.527 20.6999C130.548 20.6999 128.418 19.1353 128.418 15.7004V15.5464C128.418 12.2638 130.598 10.5461 132.752 10.5461C135.664 10.5461 136.917 13.119 136.917 15.5095C136.917 19.3409 134.587 20.6999 132.527 20.6999ZM132.903 7.60683C131.036 7.60683 129.329 8.53381 128.468 9.43633L128.12 8.06951H125.513V29.4205H128.417V21.957L128.51 21.9132C129.372 22.8158 131.027 23.5647 132.677 23.5647C136.58 23.5647 140.196 21.0321 140.196 15.4721C140.196 10.4001 136.706 7.60683 132.903 7.60683Z" fill="#9C9C9B"/>
<path d="M62.9492 23.1775H66.0154V0.579575H62.9492V23.1775Z" fill="#9C9C9B"/>
<path d="M52.7584 20.59C49.724 20.59 47.9928 18.2287 47.9928 15.587C47.9928 12.5496 49.9663 10.5089 52.7584 10.5089C54.1719 10.5089 55.1426 11.0802 56.0677 11.6435L57.5003 9.04093C56.4969 8.38435 54.7157 7.60695 52.9513 7.60695C48.178 7.60695 44.7881 10.9628 44.7881 15.587C44.7881 20.1362 48.2547 23.5669 52.9513 23.5669C54.9521 23.5669 56.3895 22.7268 57.5003 22.0923L56.0674 19.5339C55.1453 20.0925 53.8714 20.59 52.7584 20.59Z" fill="#9C9C9B"/>
<path d="M83.3858 15.7004C83.3858 19.1353 81.256 20.6999 79.2765 20.6999C77.2169 20.6999 74.8871 19.3409 74.8871 15.5095C74.8871 13.119 76.1387 10.5459 79.0514 10.5459C81.2055 10.5459 83.3858 12.2637 83.3858 15.5464V15.7004ZM83.6835 8.06936L83.336 9.43633C82.4746 8.53367 80.7676 7.60684 78.9014 7.60684C75.0981 7.60684 71.6074 10.6008 71.6074 15.4721C71.6074 20.5442 75.0981 23.5647 78.9014 23.5647C80.7676 23.5647 82.4746 22.6376 83.336 21.7349L83.6835 23.1019H86.291V8.06936H83.6835Z" fill="#9C9C9B"/>
<path d="M97.2066 16.9263C99.3319 17.4804 100.223 17.8904 100.223 18.9784C100.223 19.8123 99.4708 20.6533 97.7927 20.6533C96.2214 20.6533 94.95 20.0876 93.7729 19.4289L92.3652 21.9869C93.4575 22.6654 95.7786 23.5558 97.7927 23.5558C101.163 23.5558 103.151 21.2531 103.151 18.9784C103.151 15.028 99.2686 14.3923 98.2333 14.0622C96.0405 13.4901 95.5216 13.0523 95.5216 12.1314C95.5216 11.2 96.3586 10.509 97.9097 10.509C99.3018 10.509 100.318 10.9354 101.278 11.4117L102.71 8.80895C101.307 8.19181 99.7085 7.60683 97.9097 7.60683C94.603 7.60683 92.5936 9.93784 92.5936 12.1314C92.5936 15.5812 95.5485 16.4756 97.2066 16.9263Z" fill="#9C9C9B"/>
<path d="M113.61 16.9263C115.735 17.4804 116.626 17.8904 116.626 18.9784C116.626 19.8123 115.874 20.6533 114.196 20.6533C112.625 20.6533 111.353 20.0876 110.176 19.4289L108.769 21.9869C109.861 22.6654 112.182 23.5558 114.196 23.5558C117.566 23.5558 119.554 21.2531 119.554 18.9784C119.554 15.028 115.672 14.3923 114.637 14.0622C112.444 13.4901 111.925 13.0523 111.925 12.1314C111.925 11.2 112.762 10.509 114.313 10.509C115.705 10.509 116.72 10.9354 117.681 11.4117L119.113 8.80895C117.71 8.19181 116.112 7.60683 114.313 7.60683C111.006 7.60683 108.997 9.93784 108.997 12.1314C108.997 15.5812 111.952 16.4756 113.61 16.9263Z" fill="#9C9C9B"/>
<path d="M157.003 15.7004C157.003 19.1353 154.872 20.6999 152.893 20.6999C150.833 20.6999 148.504 19.3409 148.504 15.5095C148.504 13.119 149.756 10.5459 152.669 10.5459C154.823 10.5459 157.003 12.2637 157.003 15.5464V15.7004ZM157.3 8.06936L156.953 9.43633C156.092 8.53367 154.384 7.60684 152.519 7.60684C148.715 7.60684 145.225 10.6008 145.225 15.4721C145.225 20.5442 148.715 23.5647 152.519 23.5647C154.384 23.5647 156.092 22.6376 156.953 21.7349L157.3 23.1019H159.909V8.06936H157.3Z" fill="#9C9C9B"/>
<path d="M170.823 16.9263C172.948 17.4804 173.838 17.8904 173.838 18.9784C173.838 19.8123 173.087 20.6533 171.409 20.6533C169.838 20.6533 168.566 20.0876 167.39 19.4289L165.981 21.9869C167.074 22.6654 169.396 23.5558 171.409 23.5558C174.779 23.5558 176.767 21.2531 176.767 18.9784C176.767 15.028 172.886 14.3923 171.85 14.0622C169.657 13.4901 169.138 13.0523 169.138 12.1314C169.138 11.2 169.976 10.509 171.526 10.509C172.918 10.509 173.933 10.9354 174.893 11.4117L176.327 8.80895C174.923 8.19181 173.325 7.60683 171.526 7.60683C168.219 7.60683 166.21 9.93784 166.21 12.1314C166.21 15.5812 169.166 16.4756 170.823 16.9263Z" fill="#9C9C9B"/>
<path d="M187.227 16.9263C189.352 17.4804 190.242 17.8904 190.242 18.9784C190.242 19.8123 189.491 20.6533 187.813 20.6533C186.242 20.6533 184.97 20.0876 183.793 19.4289L182.385 21.9869C183.477 22.6654 185.8 23.5558 187.813 23.5558C191.181 23.5558 193.17 21.2531 193.17 18.9784C193.17 15.028 189.288 14.3923 188.254 14.0622C186.061 13.4901 185.541 13.0523 185.541 12.1314C185.541 11.2 186.378 10.509 187.93 10.509C189.322 10.509 190.337 10.9354 191.297 11.4117L192.73 8.80895C191.327 8.19181 189.729 7.60683 187.93 7.60683C184.623 7.60683 182.614 9.93784 182.614 12.1314C182.614 15.5812 185.568 16.4756 187.227 16.9263Z" fill="#9C9C9B"/>
</g>
<defs>
<clipPath id="clip0_511_155">
<rect width="194" height="30" fill="white"/>
</clipPath>
</defs>
</svg>
